<svg id="Layer_1" data-name="Layer 1" xmlns="http://www.w3.org/2000/svg" viewBox="0 0 163.06 160.94"><defs><style>.cls-1{fill:#ed1846;}.cls-2{fill:#bc1f48;}.cls-3{fill:#fff;}</style></defs><path class="cls-1" d="M133,54.85a51.49,51.49,0,1,0-94.2,28.73l42.28,74,.43-.24h.14l.42.24,43.42-76c.5-.82,1-1.67,1.44-2.52l.32-.56h0A51.2,51.2,0,0,0,133,54.85Z"/><circle class="cls-2" cx="81.53" cy="56.97" r="39.18"/><path class="cls-3" d="M60.84,61.77V35.1A8,8,0,0,1,62.2,30a4.35,4.35,0,0,1,3.57-1.71A4.45,4.45,0,0,1,69.45,30a8.09,8.09,0,0,1,1.36,5.1V62.38a28,28,0,0,0,.92,7.77A9,9,0,0,0,75,75a11,11,0,0,0,6.58,1.72q5.83,0,8.25-3.5t2.42-10.61V35.1A8.16,8.16,0,0,1,93.59,30a4.35,4.35,0,0,1,3.59-1.69A4.47,4.47,0,0,1,100.82,30a7.9,7.9,0,0,1,1.4,5.12V61.77a44.19,44.19,0,0,1-1.13,10.86,17.16,17.16,0,0,1-4.24,7.64,16.18,16.18,0,0,1-6.24,4.09,24.42,24.42,0,0,1-8.33,1.29,30.67,30.67,0,0,1-9.76-1.38A15.29,15.29,0,0,1,65.84,80a17.82,17.82,0,0,1-3.79-7.41A42.12,42.12,0,0,1,60.84,61.77Z"/></svg>