<?xml version="1.0" standalone="no"?>
<!DOCTYPE svg PUBLIC "-//W3C//DTD SVG 20010904//EN"
 "http://www.w3.org/TR/2001/REC-SVG-20010904/DTD/svg10.dtd">
<svg version="1.0" xmlns="http://www.w3.org/2000/svg"
 width="652.000000pt" height="652.000000pt" viewBox="0 0 652.000000 652.000000"
 preserveAspectRatio="xMidYMid meet">
<metadata>
Created by potrace 1.14, written by Peter Selinger 2001-2017
</metadata>
<g transform="translate(0.000000,652.000000) scale(0.100000,-0.100000)"
fill="#000000" stroke="none">
<path d="M3082 6339 c-292 -24 -625 -132 -877 -284 -274 -165 -529 -417 -697
-687 -400 -645 -407 -1493 -16 -2135 29 -48 434 -754 899 -1568 730 -1277 849
-1480 870 -1483 22 -2 95 122 940 1605 543 952 934 1649 959 1708 121 287 177
639 151 945 -35 402 -158 735 -397 1072 -75 106 -303 335 -417 420 -325 241
-681 374 -1092 408 -135 11 -176 11 -323 -1z m-377 -1008 c48 -22 78 -53 102
-106 17 -37 18 -94 23 -730 5 -625 7 -697 24 -765 38 -154 108 -245 224 -292
49 -19 75 -22 182 -22 107 0 134 4 184 23 110 44 177 128 218 278 21 76 22
100 27 773 6 641 7 698 24 735 53 117 177 157 279 90 23 -16 46 -44 65 -82
l28 -58 0 -690 c0 -759 -2 -793 -64 -971 -74 -216 -252 -376 -480 -433 -166
-41 -393 -38 -580 10 -234 59 -400 220 -470 454 -52 177 -54 194 -58 913 -4
585 -2 679 11 725 22 74 54 118 106 145 54 27 101 28 155 3z"/>
</g>
</svg>
